<?xml version="1.0" encoding="utf-8"?>
<!-- Generator: Adobe Illustrator 17.0.0, SVG Export Plug-In . SVG Version: 6.00 Build 0)  -->
<!DOCTYPE svg PUBLIC "-//W3C//DTD SVG 1.1//EN" "http://www.w3.org/Graphics/SVG/1.1/DTD/svg11.dtd">
<svg version="1.1" id="Capa_1" xmlns="http://www.w3.org/2000/svg" xmlns:xlink="http://www.w3.org/1999/xlink" x="0px" y="0px"
	 width="640px" height="640.002px" viewBox="0 248 640 640.002" enable-background="new 0 248 640 640.002" xml:space="preserve">
<g>
	<path fill="#FFFFFF" d="M336.764,316.988v127.144l105.499,76.649l103.929-60.502V341.683
		c-27.943-27.922-61.143-50.609-98.396-66.839L336.764,316.988z"/>
	<polygon fill="#FFFFFF" points="319.983,473.422 218.442,547.194 257.228,666.562 382.739,666.562 421.526,547.194 	"/>
	<path fill="#FFFFFF" d="M405.085,876.341l59.091-95.301l-76.474-80.919H252.27l-76.464,80.908l59.315,95.391
		C290.859,891.881,349.249,891.87,405.085,876.341z"/>
	<path fill="#FFFFFF" d="M241.88,257.818l78.103,29.647l78.141-29.66c-25.686-6.529-51.889-9.805-78.101-9.805
		C293.817,248,267.603,251.285,241.88,257.818z"/>
	<path fill="#FFFFFF" d="M559.374,491.435l-104.146,60.629l-41.263,126.989l75.76,80.164l114.065-43.7
		c3.799-7.337,7.344-14.847,10.607-22.533c14.559-34.3,22.907-70.178,25.043-106.304L559.374,491.435z"/>
	<path fill="#FFFFFF" d="M226.003,679.054L184.74,552.065L80.613,491.446l-80.052,95.51c2.059,34.188,9.671,68.186,22.877,100.868
		c3.698,9.151,7.798,18.061,12.251,26.736l114.601,44.61L226.003,679.054z"/>
	<path fill="#FFFFFF" d="M573.767,762.852l-77.238,29.688l-40.157,64.761C503.023,835.382,543.008,803.059,573.767,762.852z"/>
	<path fill="#FFFFFF" d="M579.752,381.236v82.259l58.211,68.81c-3.246-28.517-10.386-56.772-21.429-84.106
		C606.832,424.185,594.457,401.768,579.752,381.236z"/>
	<path fill="#FFFFFF" d="M183.585,857.289l-40.148-64.749l-77.283-29.705C96.869,802.984,136.86,835.308,183.585,857.289z"/>
	<path fill="#FFFFFF" d="M197.705,520.781l105.499-76.649V316.988l-111.053-42.153c-37.208,16.194-70.406,38.888-98.375,66.848
		v118.595L197.705,520.781z"/>
	<path fill="#FFFFFF" d="M2.011,532.298l58.205-68.803v-82.274c-13.638,19.044-25.271,39.733-34.646,61.819
		C13.305,471.938,5.462,501.954,2.011,532.298z"/>
</g>
</svg>
