<?xml version="1.0" encoding="utf-8"?>
<!-- Generator: Adobe Illustrator 17.0.0, SVG Export Plug-In . SVG Version: 6.00 Build 0)  -->
<!DOCTYPE svg PUBLIC "-//W3C//DTD SVG 1.1//EN" "http://www.w3.org/Graphics/SVG/1.1/DTD/svg11.dtd">
<svg version="1.1" id="Layer_1" xmlns="http://www.w3.org/2000/svg" xmlns:xlink="http://www.w3.org/1999/xlink" x="0px" y="0px"
	 width="640px" height="623.974px" viewBox="0 256.013 640 623.974" enable-background="new 0 256.013 640 623.974"
	 xml:space="preserve">
<g>
	<path fill="#FFFFFF" d="M588.936,655.305H435.192l37.531-20.426h116.213c5.642,0,10.213-4.571,10.213-10.213
		c0-5.642-4.571-10.213-10.213-10.213H470.125c-1.706,0-3.384,0.426-4.882,1.242l-75.015,40.825
		c-0.023,0.012-0.046,0.024-0.069,0.038L320,694.742l-70.16-38.182c-0.023-0.012-0.046-0.025-0.069-0.038l-75.015-40.825
		c-1.498-0.816-3.175-1.242-4.882-1.242H51.064c-5.642,0-10.213,4.571-10.213,10.213c0,5.641,4.571,10.213,10.213,10.213h116.213
		l37.531,20.426H51.064C22.907,655.305,0,678.212,0,706.369s22.907,51.064,51.064,51.064h537.872
		c28.157,0,51.064-22.907,51.064-51.064S617.094,655.305,588.936,655.305L588.936,655.305z M588.936,737.008H51.064
		c-16.893,0-30.638-13.745-30.638-30.638c0-16.893,13.745-30.638,30.638-30.638h191.274l72.78,39.609
		c1.521,0.828,3.203,1.242,4.882,1.242s3.361-0.414,4.882-1.242l72.78-39.609h191.274c16.893,0,30.638,13.745,30.638,30.638
		C619.574,723.263,605.829,737.008,588.936,737.008z"/>
	<path fill="#FFFFFF" d="M462.298,828.923c0-5.631-4.582-10.213-10.213-10.213s-10.213,4.582-10.213,10.213
		c0,5.631,4.582,10.213,10.213,10.213S462.298,834.555,462.298,828.923z"/>
	<path fill="#FFFFFF" d="M588.936,777.859H173.617c-5.642,0-10.213,4.571-10.213,10.213s4.571,10.213,10.213,10.213h404.379
		c-4.97,34.598-34.809,61.277-70.762,61.277H132.766c-35.952,0-65.791-26.678-70.762-61.277h70.762
		c5.642,0,10.213-4.571,10.213-10.213s-4.571-10.213-10.213-10.213H51.064c-5.642,0-10.213,4.571-10.213,10.213
		c0,50.683,41.232,91.915,91.915,91.915h374.468c50.683,0,91.915-41.232,91.915-91.915
		C599.149,782.431,594.578,777.859,588.936,777.859z"/>
	<path fill="#FFFFFF" d="M147.064,483.253c-5.631,0-10.213,4.582-10.213,10.213c0,5.631,4.582,10.213,10.213,10.213
		s10.213-4.582,10.213-10.213C157.277,487.835,152.694,483.253,147.064,483.253z"/>
	<path fill="#FFFFFF" d="M492.936,483.253c-5.631,0-10.213,4.582-10.213,10.213c0,5.631,4.582,10.213,10.213,10.213
		s10.213-4.582,10.213-10.213C503.149,487.835,498.567,483.253,492.936,483.253z"/>
	<path fill="#FFFFFF" d="M187.915,511.849c-5.631,0-10.213,4.582-10.213,10.213c0,5.631,4.582,10.213,10.213,10.213
		s10.213-4.582,10.213-10.213C198.128,516.431,193.546,511.849,187.915,511.849z"/>
	<path fill="#FFFFFF" d="M51.064,594.029h537.872c5.642,0,10.213-4.571,10.213-10.213v-32.155
		c0-80.715-65.668-146.383-146.383-146.383H330.213v-44.085l89.853-41.479c3.615-1.671,5.932-5.29,5.932-9.273
		s-2.316-7.604-5.932-9.273l-95.785-44.214c-3.162-1.46-6.852-1.208-9.785,0.67c-2.933,1.876-4.709,5.12-4.709,8.602v88.214
		c-0.003,0.15-0.003,0.3,0,0.448v50.39H187.234c-80.715,0-146.383,65.668-146.383,146.383v32.155
		C40.851,589.458,45.422,594.029,51.064,594.029L51.064,594.029z M330.213,282.19l61.206,28.253l-61.206,28.254V282.19z
		 M61.277,551.661c0-69.454,56.504-125.957,125.957-125.957h265.532c69.454,0,125.957,56.504,125.957,125.957v21.942H61.277V551.661
		z"/>
</g>
</svg>
