<?xml version="1.0" encoding="utf-8"?>
<!-- Generator: Adobe Illustrator 17.0.0, SVG Export Plug-In . SVG Version: 6.00 Build 0)  -->
<!DOCTYPE svg PUBLIC "-//W3C//DTD SVG 1.1//EN" "http://www.w3.org/Graphics/SVG/1.1/DTD/svg11.dtd">
<svg version="1.1" id="Capa_1" xmlns="http://www.w3.org/2000/svg" xmlns:xlink="http://www.w3.org/1999/xlink" x="0px" y="0px"
	 width="429.696px" height="640.001px" viewBox="105.151 247.999 429.696 640.001"
	 enable-background="new 105.151 247.999 429.696 640.001" xml:space="preserve">
<path id="XMLID_33_" fill="#FFFFFF" d="M403.568,677.005c0,6.697-5.43,12.127-12.127,12.127s-12.127-5.43-12.127-12.127V632.32
	c0-6.697,5.43-12.127,12.127-12.127s12.127,5.43,12.127,12.127V677.005z M391.441,726.155c-6.697,0-12.127,5.43-12.127,12.127
	v44.686c0,6.697,5.43,12.127,12.127,12.127s12.127-5.43,12.127-12.127v-44.686C403.568,731.585,398.138,726.155,391.441,726.155z
	 M462.884,620.193c-6.697,0-12.127,5.43-12.127,12.127v44.686c0,6.697,5.43,12.127,12.127,12.127s12.127-5.43,12.127-12.127V632.32
	C475.011,625.623,469.581,620.193,462.884,620.193z M177.116,620.193c-6.697,0-12.127,5.43-12.127,12.127v44.686
	c0,6.697,5.43,12.127,12.127,12.127c6.697,0,12.127-5.43,12.127-12.127V632.32C189.243,625.623,183.813,620.193,177.116,620.193z
	 M475.011,526.354c0-6.697-5.43-12.127-12.127-12.127s-12.127,5.43-12.127,12.127v44.687c0,6.697,5.43,12.127,12.127,12.127
	s12.127-5.43,12.127-12.127V526.354z M522.721,863.746H117.278c-6.697,0-12.127,5.43-12.127,12.127S110.581,888,117.278,888h405.443
	c6.697,0,12.127-5.43,12.127-12.127S529.418,863.746,522.721,863.746z M403.568,526.354c0-6.697-5.43-12.127-12.127-12.127
	s-12.127,5.43-12.127,12.127v44.687c0,6.697,5.43,12.127,12.127,12.127s12.127-5.43,12.127-12.127V526.354z M108.665,422.803
	c0-29.35,23.878-53.229,53.229-53.229h145.977V272.26h-45.844c-6.697,0-12.127-5.43-12.127-12.127
	c0-6.697,5.43-12.127,12.127-12.127h57.541c0.285-0.009,0.571-0.009,0.856,0h57.543c6.697,0,12.127,5.43,12.127,12.127
	c0,6.697-5.43,12.127-12.127,12.127h-45.845v97.313h145.985c29.348,0,53.226,23.879,53.226,53.229
	c0,29.35-23.878,53.229-53.226,53.229H161.894C132.542,476.031,108.665,452.152,108.665,422.803z M132.918,422.803
	c0,15.977,12.998,28.975,28.975,28.975h316.216c15.975,0,28.972-12.998,28.972-28.975c0-15.977-12.997-28.975-28.972-28.975H320.19
	c-0.127,0.003-0.258,0.003-0.387,0h-157.91C145.917,393.827,132.918,406.826,132.918,422.803z M260.684,526.354
	c0-6.697-5.43-12.127-12.127-12.127c-6.697,0-12.127,5.43-12.127,12.127v44.687c0,6.697,5.43,12.127,12.127,12.127
	c6.697,0,12.127-5.43,12.127-12.127V526.354z M189.243,526.354c0-6.697-5.43-12.127-12.127-12.127
	c-6.697,0-12.127,5.43-12.127,12.127v44.687c0,6.697,5.43,12.127,12.127,12.127c6.697,0,12.127-5.43,12.127-12.127V526.354z
	 M248.558,726.155c-6.697,0-12.127,5.43-12.127,12.127v44.686c0,6.697,5.43,12.127,12.127,12.127c6.697,0,12.127-5.43,12.127-12.127
	v-44.686C260.684,731.585,255.256,726.155,248.558,726.155z M319.998,620.193c-6.697,0-12.127,5.43-12.127,12.127v44.686
	c0,6.697,5.43,12.127,12.127,12.127c6.697,0,12.127-5.43,12.127-12.127V632.32C332.124,625.623,326.695,620.193,319.998,620.193z
	 M332.124,526.354c0-6.697-5.43-12.127-12.127-12.127c-6.697,0-12.127,5.43-12.127,12.127v44.687c0,6.697,5.43,12.127,12.127,12.127
	c6.697,0,12.127-5.43,12.127-12.127V526.354z M260.684,632.32c0-6.697-5.43-12.127-12.127-12.127
	c-6.697,0-12.127,5.43-12.127,12.127v44.686c0,6.697,5.43,12.127,12.127,12.127c6.697,0,12.127-5.43,12.127-12.127V632.32z"/>
</svg>
