<?xml version="1.0" encoding="utf-8"?>
<!-- Generator: Adobe Illustrator 17.0.0, SVG Export Plug-In . SVG Version: 6.00 Build 0)  -->
<!DOCTYPE svg PUBLIC "-//W3C//DTD SVG 1.1//EN" "http://www.w3.org/Graphics/SVG/1.1/DTD/svg11.dtd">
<svg version="1.1" id="Layer_1" xmlns="http://www.w3.org/2000/svg" xmlns:xlink="http://www.w3.org/1999/xlink" x="0px" y="0px"
	 width="1190.045px" height="1136px" viewBox="0 0 1190.045 1136" enable-background="new 0 0 1190.045 1136" xml:space="preserve">
<path fill="#F8F8FF" d="M442.685,347.209c1.964-3.944,3.042-8.19,3.042-12.618c0-20.711-23.403-37.5-52.273-37.5
	c-5.244,0-10.303,0.56-15.079,1.591c-30.401-27.004-82.027-44.773-140.603-44.773c-93.512,0-169.318,45.28-169.318,101.136
	c0,15.927,6.172,30.992,17.152,44.395c-70.745,2.17-127.38,55.993-127.38,122.083c0,67.467,59.017,122.159,131.818,122.159
	s131.818-54.693,131.818-122.159c0-3.416-0.159-6.796-0.456-10.141c17.038,6.365,38.251,10.141,61.251,10.141
	c56.17,0,101.705-22.513,101.705-50.284c0-0.493-0.018-0.983-0.047-1.472c10.68,1.513,21.937,2.325,33.569,2.325
	c68.722,0,124.432-28.237,124.432-63.068C542.318,378.495,499.525,353.035,442.685,347.209z"/>
<path fill="#F8F8FF" d="M1184.731,1004.927c1.964,3.944,3.042,8.19,3.042,12.618c0,20.711-23.403,37.5-52.273,37.5
	c-5.244,0-10.303-0.56-15.079-1.591c-30.401,27.004-82.027,44.773-140.603,44.773c-93.512,0-169.318-45.28-169.318-101.136
	c0-15.927,6.172-30.992,17.152-44.395c-70.745-2.17-127.38-55.993-127.38-122.083c0-67.467,59.017-122.159,131.818-122.159
	s131.818,54.693,131.818,122.159c0,3.416-0.159,6.796-0.456,10.141c17.038-6.365,38.251-10.141,61.251-10.141
	c56.17,0,101.705,22.513,101.705,50.284c0,0.493-0.018,0.983-0.047,1.472c10.68-1.513,21.937-2.325,33.569-2.325
	c68.722,0,124.432,28.237,124.432,63.068C1284.364,973.641,1241.571,999.101,1184.731,1004.927z"/>
<path fill="#F8F8FF" d="M723.326,644.465c14.673-9.232,23.537-21.211,23.537-34.306c0-29.183-44.008-52.841-98.295-52.841
	c-1.762,0-3.512,0.026-5.251,0.075c-8.614-9.84-39.371-17.121-75.999-17.121c-43.304,0-78.409,10.175-78.409,22.727
	c0,1.944,0.846,3.83,2.43,5.631c-48.121,2.796-84.248,14.577-84.248,28.687c0,16.192,47.57,29.318,106.25,29.318
	c14.365,0,28.06-0.788,40.559-2.214c0.405,0.778,0.844,1.549,1.313,2.313c-104.236,1.565-186.758,22.289-186.758,47.629
	c0,26.359,89.289,47.727,199.432,47.727s199.432-21.368,199.432-47.727C767.318,663.044,750.84,652.647,723.326,644.465z"/>
<path fill="#F8F8FF" d="M811.31,283.101c-14.673-9.232-23.537-21.211-23.537-34.306c0-29.183,44.008-52.841,98.295-52.841
	c1.762,0,3.512,0.026,5.251,0.075c8.614-9.84,39.371-17.121,75.999-17.121c43.304,0,78.409,10.175,78.409,22.727
	c0,1.944-0.846,3.83-2.43,5.631c48.121,2.796,84.248,14.577,84.248,28.687c0,16.192-47.57,29.318-106.25,29.318
	c-14.365,0-28.06-0.788-40.559-2.214c-0.405,0.778-0.844,1.549-1.313,2.313c104.236,1.565,186.758,22.289,186.758,47.629
	c0,26.359-89.289,47.727-199.432,47.727c-110.143,0-199.432-21.368-199.432-47.727C767.318,301.68,783.796,291.283,811.31,283.101z"
	/>
<path fill="#F8F8FF" d="M511.984,891.797c18.712-8.461,30.334-20.272,30.334-33.342c0-25.731-45.026-46.591-100.568-46.591
	c-52.235,0-95.164,18.45-100.092,42.05c-16.85-4.506-35.468-7.671-55.232-9.195c4.556-5.335,7.028-11.03,7.028-16.947
	c0-30.125-63.85-54.545-142.614-54.545S8.227,797.648,8.227,827.773c0,25.692,46.447,47.232,108.974,53.015
	c-17.175,12.71-27.156,27.867-27.156,44.144c0,44.873,75.806,81.25,169.318,81.25c40.305,0,77.314-6.762,106.388-18.046
	c21.372,11.152,50.841,18.046,83.384,18.046c65.27,0,118.182-27.728,118.182-61.932C567.318,922.15,545.224,902.757,511.984,891.797
	z"/>
</svg>
