<?xml version="1.0" encoding="utf-8"?>
<!-- Generator: Adobe Illustrator 17.0.0, SVG Export Plug-In . SVG Version: 6.00 Build 0)  -->
<!DOCTYPE svg PUBLIC "-//W3C//DTD SVG 1.1//EN" "http://www.w3.org/Graphics/SVG/1.1/DTD/svg11.dtd">
<svg version="1.1" id="Capa_1" xmlns="http://www.w3.org/2000/svg" xmlns:xlink="http://www.w3.org/1999/xlink" x="0px" y="0px"
	 width="512px" height="512px" viewBox="0 0 512 512" enable-background="new 0 0 512 512" xml:space="preserve">
<path d="M7.25,42.719c-9.6-9.6-9.6-25.578,0-35.513c9.936-9.6,25.578-9.6,35.513,0l213.102,213.46l213.46-213.46
	c9.6-9.6,25.578-9.6,35.155,0c9.936,9.936,9.936,25.936,0,35.513L291.379,255.843l213.102,213.46c9.936,9.6,9.936,25.578,0,35.513
	c-9.6,9.6-25.578,9.6-35.155,0l-213.46-213.46L42.764,504.817c-9.936,9.6-25.578,9.6-35.513,0c-9.6-9.936-9.6-25.936,0-35.513
	l213.102-213.46L7.25,42.719z"/>
</svg>
